#!OML:ASF I:\Actors\actors\Patient Classification 1\Patient 1\Session 1\Subject1.ASF
:FULLY-SPECIFIED
:DEGREES
551
root 0.640142 17.5186 8.92759 9.37079 -10.644 -9.49907
lowerback 0.60025 2.59343 7.31265
upperback -8.63713 3.94057 0.655182
thorax -9.07242 1.39999 -3.69405
lowerneck -14.8996 2.79791 3.17991
upperneck 31.7857 -0.590234 11.1015
head 13.2795 1.61596 3.74105
rclavicle 2.15681e-014 -1.51076e-014
rhumerus 87.9538 56.6112 -3.91194
rradius 115.125
rwrist -46.4674
rhand 3.63656 -30.2527
rfingers 7.12502
rthumb 29.0687 -58.0047
lclavicle 2.15681e-014 -1.51076e-014
lhumerus 30.1191 -66.3727 18.1479
lradius 92.5948
lwrist 64.1894
lhand 16.3423 -15.5896
lfingers 7.12502
lthumb 41.1136 9.29059
rfemur -7.35212 24.8827 24.5931
rtibia 3.78655
rfoot -8.36924 -15.9303
rtoes -3.00997
lfemur 6.21995 -39.6263 -12.9541
ltibia -3.35636
lfoot -28.4743 53.7831
ltoes 18.1881
552
root 0.631451 17.522 8.9409 8.86256 -9.79192 -9.42967
lowerback 0.572243 2.33099 7.09606
upperback -8.46914 3.5721 0.745721
thorax -8.92469 1.24995 -3.44706
lowerneck -14.996 2.70299 2.90318
upperneck 32.0024 -0.693336 11.1566
head 13.395 1.55362 3.81262
rclavicle -1.41137e-014 -7.95139e-016
rhumerus 87.5823 57.4838 -1.45038
rradius 115.984
rwrist -45.9862
rhand 4.1576 -30.0237
rfingers 7.12502
rthumb 29.5662 -57.6886
lclavicle -1.41137e-014 -7.95139e-016
lhumerus 29.4577 -66.4355 18.8897
lradius 92.3554
lwrist 64.0921
lhand 16.3688 -15.5804
lfingers 7.12502
lthumb 41.1385 9.29181
rfemur -6.42199 25.1369 24.928
rtibia 3.50864
rfoot -8.56228 -17.0285
rtoes -2.67923
lfemur 6.52903 -39.4443 -13.0579
ltibia -3.36072
lfoot -26.8082 53.1759
ltoes 16.6195
553
root 0.626121 17.5216 8.959 8.5809 -9.17276 -9.6046
lowerback 0.278154 2.25257 7.15368
upperback -8.32728 3.4421 0.833521
thorax -8.61034 1.20236 -3.3592
lowerneck -15.0987 2.55641 2.66993
upperneck 32.1589 -0.867783 11.1797
head 13.4923 1.45959 3.84958
rclavicle -3.71727e-014 -2.46493e-014
rhumerus 85.0993 58.4629 -0.948234
rradius 115.937
rwrist -45.4934
rhand 4.2865 -29.538
rfingers 7.12502
rthumb 29.6892 -57.1811
lclavicle -3.71727e-014 -2.46493e-014
lhumerus 28.9473 -66.5105 19.5888
lradius 92.1273
lwrist 63.9906
lhand 16.6834 -15.5679
lfingers 7.12502
lthumb 41.4338 9.20905
rfemur -5.78659 24.9285 25.4254
rtibia 3.34738
rfoot -8.74249 -17.3898
rtoes -2.549
lfemur 6.85245 -39.3357 -12.9713
ltibia -3.47266
lfoot -25.6227 52.8363
ltoes 15.3546
554
root 0.62599 17.521 8.97764 8.5511 -8.55656 -10.0332
lowerback 0.091266 2.27212 7.76029
upperback -8.41046 3.48061 0.75836
thorax -8.56257 1.17437 -3.77003
lowerneck -15.1104 2.39966 2.6445
upperneck 32.1996 -1.12818 11.2837
head 13.5322 1.35945 3.86041
rclavicle -1.65985e-014 0
rhumerus 80.2489 59.5681 -3.15226
rradius 114.91
rwrist -44.8102
rhand 2.7804 -29.5448
rfingers 7.12502
rthumb 28.2507 -57.435
lclavicle -1.65985e-014 0
lhumerus 28.8825 -66.8754 19.6271
lradius 92.0642
lwrist 63.9735
lhand 16.6624 -15.4921
lfingers 7.12502
lthumb 41.4141 9.29119
rfemur -5.48 24.4806 26.0654
rtibia 3.25032
rfoot -8.87586 -17.4579
rtoes -2.64023
lfemur 6.86721 -39.2328 -12.4145
ltibia -3.5782
lfoot -24.5779 52.4877
ltoes 14.2731
555
root 0.627141 17.52 8.98562 8.47603 -8.01218 -10.2468
lowerback -0.371841 2.27035 7.80582
upperback -8.23739 3.43381 0.890683
thorax -8.10996 1.17855 -3.62558
lowerneck -15.0891 2.33064 2.65758
upperneck 31.8723 -1.13146 11.097
head 13.3821 1.32529 3.75993
rclavicle -3.97569e-014 8.74653e-015
rhumerus 75.059 59.64 -5.99459
rradius 113.137
rwrist -43.9177
rhand 2.6982 -29.1396
rfingers 7.12502
rthumb 28.1721 -57.0427
lclavicle -3.97569e-014 8.74653e-015
lhumerus 28.3889 -66.8188 20.3057
lradius 92.0158
lwrist 64.1142
lhand 16.5254 -15.4709
lfingers 7.12502
lthumb 41.2855 9.35408
rfemur -5.27271 24.2375 26.4117
rtibia 3.19178
rfoot -8.91876 -17.7136
rtoes -3.06553
lfemur 6.75389 -39.1238 -12.028
ltibia -3.57927
lfoot -23.7582 52.0635
ltoes 13.5187
556
root 0.628432 17.5191 8.98529 8.26341 -7.63069 -10.1744
lowerback -0.19788 2.16138 7.77705
upperback -8.27964 3.30551 0.867121
thorax -8.27404 1.1083 -3.63707
lowerneck -15.0636 2.37804 2.78455
upperneck 31.9044 -1.07452 11.0235
head 13.3876 1.35753 3.71832
rclavicle -1.41137e-014 7.95139e-016
rhumerus 70.764 59.3005 -9.00368
rradius 110.83
rwrist -43.6378
rhand 2.31083 -29.2251
rfingers 7.12502
rthumb 27.8018 -57.1886
lclavicle -1.41137e-014 7.95139e-016
lhumerus 27.0517 -67.0481 21.3688
lradius 92.0755
lwrist 64.4028
lhand 16.7225 -15.2954
lfingers 7.12502
lthumb 41.4705 9.46955
rfemur -5.02559 24.1486 26.4401
rtibia 3.18927
rfoot -8.99112 -18.0147
rtoes -3.30456
lfemur 6.7627 -39.0253 -12.0829
ltibia -3.5287
lfoot -23.0127 51.7294
ltoes 12.8205
557
root 0.631712 17.5194 8.98261 8.07016 -7.34567 -10.1104
lowerback -0.277166 1.98206 7.62111
upperback -8.17879 3.0612 1.11721
thorax -8.16285 1.01635 -3.26683
lowerneck -15.0868 2.54751 2.74652
upperneck 32.0946 -0.738265 10.7468
head 13.4469 1.4705 3.67634
rclavicle -1.76918e-014 -2.62396e-014
rhumerus 68.2932 58.3687 -10.9628
rradius 108.286
rwrist -44.8876
rhand 1.11778 -30.0449
rfingers 7.12502
rthumb 26.6606 -58.1874
lclavicle -1.76918e-014 -2.62396e-014
lhumerus 24.9598 -67.0809 23.3814
lradius 92.0034
lwrist 64.5232
lhand 16.8875 -15.0892
lfingers 7.12502
lthumb 41.6253 9.62518
rfemur -4.81884 24.0506 26.4456
rtibia 3.2105
rfoot -9.13496 -18.2102
rtoes -2.95601
lfemur 6.7391 -38.8378 -12.1219
ltibia -3.44357
lfoot -22.2564 51.3867
ltoes 12.0766
